<svg xmlns="http://www.w3.org/2000/svg" width="32" height="32" viewBox="0 0 32 32"><g><g><path fill="#fdce16" d="M16 1.998c-7.72 0-14 6.28-14 14S8.28 30.03 16 30.03s14-6.311 14-14.031c0-7.72-6.28-14-14-14 0 0 7.72 0 0 0zm0-2c8.837 0 16 7.164 16 16 0 8.838-7.163 16-16 16s-16-7.162-16-16c0-8.836 7.163-16 16-16zm.636 22.083a.999.999 0 0 1 0-1.413l3.68-3.68H8.99a1 1 0 1 1 0-2h11.264l-3.618-3.618a1 1 0 1 1 1.414-1.414l5.907 6.063-5.907 6.062a.995.995 0 0 1-1.414 0z"/><path fill="#729602" d="M16 1.998c-7.72 0-14 6.28-14 14S8.28 30.03 16 30.03s14-6.311 14-14.031c0-7.72-6.28-14-14-14 0 0 7.72 0 0 0zm0-2c8.837 0 16 7.164 16 16 0 8.838-7.163 16-16 16s-16-7.162-16-16c0-8.836 7.163-16 16-16zm.636 22.083a.999.999 0 0 1 0-1.413l3.68-3.68H8.99a1 1 0 1 1 0-2h11.264l-3.618-3.618a1 1 0 1 1 1.414-1.414l5.907 6.063-5.907 6.062a.995.995 0 0 1-1.414 0z"/></g></g></svg>